<?xml version="1.0" encoding="iso-8859-1"?>
<svg xmlns="http://www.w3.org/2000/svg" xmlns:xlink="http://www.w3.org/1999/xlink" version="1.1" id="Layer_1_1_" x="0px" y="0px" viewBox="0 0 60 60" style="enable-background:new 0 0 60 60;" xml:space="preserve">
<path d="M59,0H1C0.447,0,0,0.448,0,1v58c0,0.552,0.447,1,1,1h58c0.553,0,1-0.448,1-1V1C60,0.448,59.553,0,59,0z M58,58H2V2h56V58z"/>
<path d="M24.402,34.184l-7.217,7.217C16.015,40.526,14.57,40,13,40c-3.859,0-7,3.14-7,7s3.141,7,7,7s7-3.14,7-7  c0-1.57-0.526-3.015-1.402-4.184l7.217-7.217c0.915,0.686,2.001,1.151,3.184,1.322v3.16c-3.386,0.488-6,3.401-6,6.92  c0,3.86,3.141,7,7,7s7-3.14,7-7c0-3.519-2.614-6.432-6-6.92v-3.16c1.183-0.17,2.269-0.636,3.184-1.322l7.217,7.217  C40.526,43.985,40,45.43,40,47c0,3.86,3.141,7,7,7s7-3.14,7-7s-3.141-7-7-7c-1.57,0-3.015,0.526-4.184,1.402l-7.217-7.217  c0.686-0.915,1.151-2.001,1.322-3.184h3.16c0.488,3.387,3.401,6,6.92,6c3.859,0,7-3.14,7-7s-3.141-7-7-7  c-3.519,0-6.432,2.613-6.92,6h-3.16c-0.17-1.183-0.636-2.269-1.322-3.184l7.217-7.217C43.985,19.474,45.43,20,47,20  c3.859,0,7-3.14,7-7s-3.141-7-7-7s-7,3.14-7,7c0,1.57,0.526,3.015,1.402,4.184l-7.217,7.217C33.269,23.716,32.183,23.25,31,23.08  v-3.16c3.386-0.488,6-3.401,6-6.92c0-3.86-3.141-7-7-7s-7,3.14-7,7c0,3.519,2.614,6.432,6,6.92v3.16  c-1.183,0.17-2.269,0.636-3.184,1.322l-7.217-7.217C19.474,16.015,20,14.57,20,13c0-3.86-3.141-7-7-7s-7,3.14-7,7s3.141,7,7,7  c1.57,0,3.015-0.526,4.184-1.402l7.217,7.217C23.716,26.731,23.25,27.817,23.08,29h-3.16c-0.488-3.387-3.401-6-6.92-6  c-3.859,0-7,3.14-7,7s3.141,7,7,7c3.519,0,6.432-2.613,6.92-6h3.16C23.25,32.183,23.716,33.269,24.402,34.184z M30,25  c2.757,0,5,2.243,5,5s-2.243,5-5,5s-5-2.243-5-5S27.243,25,30,25z M13,52c-2.757,0-5-2.243-5-5s2.243-5,5-5s5,2.243,5,5  S15.757,52,13,52z M35,47c0,2.757-2.243,5-5,5s-5-2.243-5-5s2.243-5,5-5S35,44.243,35,47z M52,47c0,2.757-2.243,5-5,5s-5-2.243-5-5  s2.243-5,5-5S52,44.243,52,47z M47,25c2.757,0,5,2.243,5,5s-2.243,5-5,5s-5-2.243-5-5S44.243,25,47,25z M47,8c2.757,0,5,2.243,5,5  s-2.243,5-5,5s-5-2.243-5-5S44.243,8,47,8z M25,13c0-2.757,2.243-5,5-5s5,2.243,5,5s-2.243,5-5,5S25,15.757,25,13z M8,13  c0-2.757,2.243-5,5-5s5,2.243,5,5s-2.243,5-5,5S8,15.757,8,13z M13,35c-2.757,0-5-2.243-5-5s2.243-5,5-5s5,2.243,5,5  S15.757,35,13,35z"/>
<circle cx="30" cy="30" r="2"/>

	<metadata>
		<rdf:RDF xmlns:rdf="http://www.w3.org/1999/02/22-rdf-syntax-ns#" xmlns:rdfs="http://www.w3.org/2000/01/rdf-schema#" xmlns:dc="http://purl.org/dc/elements/1.1/">
			<rdf:Description about="https://iconscout.com/legal#licenses" dc:title="16abstract-geometric-polygon-eye" dc:description="16abstract-geometric-polygon-eye" dc:publisher="Iconscout" dc:date="2017-01-04" dc:format="image/svg+xml" dc:language="en">
				<dc:creator>
					<rdf:Bag>
						<rdf:li>Becris .</rdf:li>
					</rdf:Bag>
				</dc:creator>
			</rdf:Description>
		</rdf:RDF>
    </metadata></svg>
