<svg xmlns="http://www.w3.org/2000/svg" id="Layer_1" enable-background="new 0 0 32 32" viewBox="0 0 32 32"><path fill="#eaf7fc" d="M21.144,13.684h2.121l2.475-2.475c1.367-1.367,1.367-3.583,0-4.95c-1.367-1.367-3.583-1.367-4.95,0   l-0.354,0.354v1.414h-1.414l-3.536,3.536l-1.328,1.414v1.5l-1.586,0L9.831,17.22l0.354,4.596l4.596,0.354l1.414-1.414v-1.414h1.414   l3.536-3.536v-1.414V13.684z"/><path fill="#1a4875" d="M26.094,5.906c-1.51-1.512-4.146-1.512-5.656,0L20.084,6.26c-0.094,0.094-0.146,0.221-0.146,0.354v0.914  h-0.914c-0.133,0-0.26,0.053-0.354,0.146l-3.547,3.546l-1.328,1.414c-0.087,0.093-0.136,0.216-0.136,0.343v1h-1.086  c-0.133,0-0.26,0.053-0.354,0.146l-2.742,2.743c-0.104,0.104-0.156,0.246-0.145,0.392l0.336,4.366l-4.788,4.788  c-0.195,0.195-0.195,0.512,0,0.707c0.098,0.098,0.226,0.146,0.354,0.146s0.256-0.049,0.354-0.146l4.788-4.788l4.366,0.336  c0.013,0.002,0.025,0.002,0.038,0.002c0.132,0,0.26-0.053,0.354-0.146l1.414-1.414c0.094-0.094,0.146-0.221,0.146-0.354v-0.914  h0.914c0.133,0,0.26-0.053,0.354-0.146l3.536-3.535c0.094-0.094,0.146-0.221,0.146-0.354v-1.622h1.621  c0.133,0,0.26-0.053,0.354-0.146l2.475-2.475c0.756-0.755,1.172-1.76,1.172-2.828S26.85,6.661,26.094,5.906z M12.78,14.977h1.379  c0.276,0,0.5-0.224,0.5-0.5v-1.302l1.182-1.259l2.06-2.059l0.253,3.283l-1.19,1.19l-0.08-1.039c-0.021-0.276-0.283-0.501-0.536-0.46  c-0.275,0.021-0.481,0.261-0.46,0.536l0.145,1.894l-1.191,1.191l-0.022-0.284c-0.021-0.276-0.283-0.499-0.536-0.46  c-0.275,0.021-0.481,0.261-0.46,0.536l0.088,1.138l-1.19,1.19l-0.253-3.283L12.78,14.977z M10.348,17.41l1.19-1.19l0.253,3.283  l-1.19,1.19L10.348,17.41z M17.401,18.841h-1.207c-0.276,0-0.5,0.224-0.5,0.5v1.207l-1.105,1.104L11.307,21.4l1.19-1.19l1.712,0.132  c0.013,0.002,0.025,0.002,0.039,0.002c0.258,0,0.478-0.199,0.497-0.462c0.021-0.275-0.185-0.516-0.46-0.536l-0.857-0.066l1.19-1.19  l3.283,0.253L17.401,18.841z M23.059,13.184h-1.914c-0.276,0-0.5,0.224-0.5,0.5v1.915l-1.813,1.812l-3.283-0.253l1.19-1.19  l1.893,0.145c0.013,0.002,0.025,0.002,0.039,0.002c0.258,0,0.478-0.199,0.497-0.462c0.021-0.275-0.185-0.516-0.46-0.536l-1.038-0.08  l3.313-3.313l3.283,0.253L23.059,13.184z M25.387,10.856l-0.191,0.191l-3.283-0.253l2.06-2.06c0.195-0.195,0.195-0.512,0-0.707  c-0.195-0.195-0.512-0.195-0.707,0l-2.06,2.06l-0.022-0.283c-0.021-0.276-0.277-0.496-0.536-0.46  c-0.275,0.021-0.481,0.261-0.46,0.536l0.088,1.137l-1.192,1.192l-0.253-3.283l0.399-0.399h1.207c0.276,0,0.5-0.224,0.5-0.5V6.82  l0.207-0.207c1.133-1.133,3.109-1.133,4.242,0c0.566,0.566,0.879,1.319,0.879,2.121S25.953,10.289,25.387,10.856z"/></svg>