<?xml version="1.0" encoding="UTF-8"?>
<svg xmlns="http://www.w3.org/2000/svg" xmlns:xlink="http://www.w3.org/1999/xlink" width="64px" height="64px" viewBox="0 0 64 64" version="1.1">
<g id="surface267355">
<path style=" stroke:none;fill-rule:nonzero;fill:rgb(26.666667%,29.411765%,32.941176%);fill-opacity:1;" d="M 32 17 C 19.574219 17 9.5 27.074219 9.5 39.5 C 9.5 51.925781 19.574219 62 32 62 C 44.425781 62 54.5 51.925781 54.5 39.5 C 54.5 27.074219 44.425781 17 32 17 Z M 32 17 "/>
<path style=" stroke:none;fill-rule:nonzero;fill:rgb(100%,100%,100%);fill-opacity:1;" d="M 32 17 C 19.550781 17 9.5 27.050781 9.5 39.5 C 9.5 51.949219 19.550781 62 32 62 C 44.449219 62 54.5 51.949219 54.5 39.5 C 54.5 27.050781 44.449219 17 32 17 M 32 21.699219 C 35.351562 21.699219 38.101562 24.5 38 27.851562 C 37.898438 31 35.300781 33.601562 32.148438 33.699219 C 28.75 33.800781 26 31.050781 26 27.699219 C 26 24.351562 28.699219 21.699219 32 21.699219 M 20.199219 45.5 C 16.898438 45.5 14.199219 42.800781 14.199219 39.5 C 14.199219 36.199219 16.898438 33.5 20.199219 33.5 C 23.5 33.5 26.199219 36.199219 26.199219 39.5 C 26.199219 42.800781 23.5 45.5 20.199219 45.5 M 32 57.300781 C 28.699219 57.300781 26 54.601562 26 51.300781 C 26 48 28.699219 45.300781 32 45.300781 C 35.300781 45.300781 38 48 38 51.300781 C 38 54.648438 35.300781 57.300781 32 57.300781 M 43.800781 45.5 C 40.5 45.5 37.800781 42.800781 37.800781 39.5 C 37.800781 36.199219 40.5 33.5 43.800781 33.5 C 47.101562 33.5 49.800781 36.199219 49.800781 39.5 C 49.800781 42.800781 47.148438 45.5 43.800781 45.5 "/>
<path style=" stroke:none;fill-rule:nonzero;fill:rgb(82.745098%,82.745098%,88.235294%);fill-opacity:1;" d="M 37.800781 39.5 C 37.800781 36.199219 40.5 33.5 43.800781 33.5 C 47.101562 33.5 49.800781 36.199219 49.800781 39.5 C 49.800781 42.800781 47.148438 45.5 43.800781 45.5 C 40.5 45.5 37.800781 42.800781 37.800781 39.5 M 32 17 L 32 21.699219 C 35.300781 21.699219 38 24.351562 38 27.648438 C 38 27.699219 38 27.75 38 27.851562 C 37.898438 31 35.300781 33.601562 32.148438 33.699219 C 32.101562 33.699219 32.050781 33.699219 32 33.699219 L 32 45.300781 C 35.300781 45.300781 38 48 38 51.300781 C 38 51.300781 38 51.300781 38 51.351562 C 38 54.648438 35.300781 57.351562 32 57.351562 L 32 62 C 44.449219 62 54.5 51.949219 54.5 39.5 C 54.5 27.101562 44.449219 17 32 17 "/>
<path style=" stroke:none;fill-rule:nonzero;fill:rgb(100%,100%,100%);fill-opacity:1;" d="M 32 36 C 30.066406 36 28.5 37.566406 28.5 39.5 C 28.5 41.433594 30.066406 43 32 43 C 33.933594 43 35.5 41.433594 35.5 39.5 C 35.5 37.566406 33.933594 36 32 36 Z M 32 36 "/>
<path style=" stroke:none;fill-rule:nonzero;fill:rgb(26.666667%,29.411765%,32.941176%);fill-opacity:1;" d="M 32 38 C 31.171875 38 30.5 38.671875 30.5 39.5 C 30.5 40.328125 31.171875 41 32 41 C 32.828125 41 33.5 40.328125 33.5 39.5 C 33.5 38.671875 32.828125 38 32 38 Z M 32 38 "/>
<path style=" stroke:none;fill-rule:nonzero;fill:rgb(26.666667%,29.411765%,32.941176%);fill-opacity:1;" d="M 53.25 60.5 L 32 60.5 C 20.398438 60.5 11 51.101562 11 39.5 C 11 27.898438 20.398438 18.5 32 18.5 C 43.601562 18.5 53 27.898438 53 39.5 C 53 45.800781 50.199219 51.699219 45.351562 55.699219 C 44.699219 56.25 44.601562 57.148438 45.148438 57.800781 C 45.699219 58.449219 46.601562 58.550781 47.25 58 C 52.800781 53.398438 56 46.648438 56 39.5 C 56 26.25 45.25 15.5 32 15.5 C 18.75 15.5 8 26.25 8 39.5 C 8 52.75 18.75 63.5 32 63.5 L 53.25 63.5 C 54.101562 63.5 54.75 62.851562 54.75 62 C 54.75 61.148438 54.101562 60.5 53.25 60.5 Z M 60.75 60.5 C 59.921875 60.5 59.25 61.171875 59.25 62 C 59.25 62.828125 59.921875 63.5 60.75 63.5 C 61.578125 63.5 62.25 62.828125 62.25 62 C 62.25 61.171875 61.578125 60.5 60.75 60.5 Z M 60.75 60.5 "/>
</g>
</svg>
