<?xml version="1.0" encoding="UTF-8"?>
<svg xmlns="http://www.w3.org/2000/svg" xmlns:xlink="http://www.w3.org/1999/xlink" width="80px" height="80px" viewBox="0 0 80 80" version="1.1">
<g id="surface273971">
<path style=" stroke:none;fill-rule:nonzero;fill:rgb(87.45098%,94.117647%,99.607843%);fill-opacity:1;" d="M 3 19 L 75 19 L 75 61 L 3 61 Z M 3 19 "/>
<path style=" stroke:none;fill-rule:nonzero;fill:rgb(27.843137%,53.333333%,78.039216%);fill-opacity:1;" d="M 74 20 L 74 60 L 4 60 L 4 20 L 74 20 M 76 18 L 2 18 L 2 62 L 76 62 Z M 76 18 "/>
<path style=" stroke:none;fill-rule:nonzero;fill:rgb(71.372549%,86.27451%,99.607843%);fill-opacity:1;" d="M 60 60 L 32 60 L 32 32 Z M 60 60 "/>
<path style=" stroke:none;fill-rule:nonzero;fill:rgb(27.843137%,53.333333%,78.039216%);fill-opacity:1;" d="M 74 12 L 74 18 L 4 18 L 4 12 L 74 12 M 76 10 L 2 10 L 2 20 L 76 20 Z M 76 10 "/>
<path style=" stroke:none;fill-rule:nonzero;fill:rgb(27.843137%,53.333333%,78.039216%);fill-opacity:1;" d="M 12 10 L 10 10 L 10 20 L 12 20 Z M 20 10 L 18 10 L 18 20 L 20 20 Z M 28 10 L 26 10 L 26 20 L 28 20 Z M 36 10 L 34 10 L 34 20 L 36 20 Z M 44 10 L 42 10 L 42 20 L 44 20 Z M 52 10 L 50 10 L 50 20 L 52 20 Z M 60 10 L 58 10 L 58 20 L 60 20 Z M 68 10 L 66 10 L 66 20 L 68 20 Z M 74 62 L 74 68 L 4 68 L 4 62 L 74 62 M 76 60 L 2 60 L 2 70 L 76 70 Z M 76 60 "/>
<path style=" stroke:none;fill-rule:nonzero;fill:rgb(27.843137%,53.333333%,78.039216%);fill-opacity:1;" d="M 12 60 L 10 60 L 10 70 L 12 70 Z M 20 60 L 18 60 L 18 70 L 20 70 Z M 28 60 L 26 60 L 26 70 L 28 70 Z M 36 60 L 34 60 L 34 70 L 36 70 Z M 44 60 L 42 60 L 42 70 L 44 70 Z M 52 60 L 50 60 L 50 70 L 52 70 Z M 60 60 L 58 60 L 58 70 L 60 70 Z M 68 60 L 66 60 L 66 70 L 68 70 Z M 68 60 "/>
<path style=" stroke:none;fill-rule:nonzero;fill:rgb(87.45098%,94.117647%,99.607843%);fill-opacity:1;" d="M 38.117188 47.40625 L 33.566406 33.566406 L 47.363281 38.117188 L 52.414062 43.167969 L 43.785156 53.078125 Z M 38.117188 47.40625 "/>
<path style=" stroke:none;fill-rule:nonzero;fill:rgb(27.843137%,53.333333%,78.039216%);fill-opacity:1;" d="M 35.136719 35.136719 L 46.820312 38.992188 L 51.046875 43.214844 L 43.730469 51.613281 L 38.988281 46.871094 L 35.136719 35.136719 M 32 31.996094 L 37.238281 47.949219 L 43.835938 54.542969 L 53.78125 43.125 L 47.902344 37.242188 Z M 32 31.996094 "/>
<path style=" stroke:none;fill-rule:nonzero;fill:rgb(71.372549%,86.27451%,99.607843%);fill-opacity:1;" d="M 72.445312 79 C 70.695312 79 69.050781 78.316406 67.8125 77.078125 L 63.421875 72.6875 L 72.691406 63.417969 L 77.082031 67.808594 C 78.320312 69.046875 79.003906 70.695312 79.003906 72.445312 C 79.003906 74.195312 78.320312 75.839844 77.082031 77.078125 C 75.84375 78.316406 74.195312 79 72.445312 79 Z M 72.445312 79 "/>
<path style=" stroke:none;fill-rule:nonzero;fill:rgb(27.843137%,53.333333%,78.039216%);fill-opacity:1;" d="M 72.6875 64.832031 L 76.375 68.515625 C 78.539062 70.683594 78.539062 74.207031 76.375 76.371094 C 75.324219 77.421875 73.929688 78 72.445312 78 C 70.960938 78 69.566406 77.421875 68.519531 76.375 L 64.835938 72.691406 L 72.6875 64.832031 M 72.6875 62.003906 L 62.003906 72.6875 L 67.105469 77.789062 C 68.578125 79.261719 70.511719 80 72.445312 80 C 74.378906 80 76.3125 79.261719 77.789062 77.789062 C 80.738281 74.839844 80.738281 70.054688 77.789062 67.105469 Z M 72.6875 62.003906 "/>
<path style=" stroke:none;fill-rule:nonzero;fill:rgb(71.372549%,86.27451%,99.607843%);fill-opacity:1;" d="M 39.339844 48.628906 C 40.402344 48.164062 41.285156 47.1875 41.519531 45.507812 C 44.007812 45.109375 45.0625 43.132812 45.386719 41.589844 C 46.320312 41.445312 47.097656 41.054688 47.699219 40.433594 C 48.058594 40.058594 48.3125 39.644531 48.492188 39.242188 L 69.660156 60.386719 L 60.390625 69.65625 Z M 39.339844 48.628906 "/>
<path style=" stroke:none;fill-rule:nonzero;fill:rgb(27.843137%,53.333333%,78.039216%);fill-opacity:1;" d="M 48.675781 40.839844 L 68.242188 60.386719 L 60.386719 68.242188 L 40.925781 48.800781 C 41.578125 48.226562 42.105469 47.425781 42.375 46.339844 C 44.488281 45.726562 45.683594 44.0625 46.195312 42.433594 C 47.242188 42.140625 47.957031 41.601562 48.414062 41.125 C 48.507812 41.035156 48.59375 40.9375 48.675781 40.839844 M 47.902344 37.242188 C 47.902344 37.242188 48.023438 40.65625 44.496094 40.65625 C 44.496094 40.65625 44.375 44.578125 40.578125 44.578125 C 40.578125 47.640625 38.523438 47.972656 37.636719 47.972656 C 37.394531 47.972656 37.238281 47.949219 37.238281 47.949219 L 60.386719 71.070312 L 71.070312 60.386719 Z M 47.902344 37.242188 "/>
<path style=" stroke:none;fill-rule:nonzero;fill:rgb(87.45098%,94.117647%,99.607843%);fill-opacity:1;" d="M 59.445312 68.714844 L 68.714844 59.445312 L 75.507812 66.238281 L 66.238281 75.511719 Z M 59.445312 68.714844 "/>
<path style=" stroke:none;fill-rule:nonzero;fill:rgb(27.843137%,53.333333%,78.039216%);fill-opacity:1;" d="M 68.714844 60.859375 L 74.097656 66.238281 L 66.238281 74.097656 L 60.859375 68.714844 L 68.714844 60.859375 M 68.714844 58.03125 L 58.03125 68.714844 L 66.238281 76.925781 L 76.925781 66.238281 Z M 68.714844 58.03125 "/>
<path style=" stroke:none;fill-rule:nonzero;fill:rgb(27.843137%,53.333333%,78.039216%);fill-opacity:1;" d="M 35.175781 41.660156 L 41 34.96875 L 32 32 Z M 35.175781 41.660156 "/>
</g>
</svg>
