<?xml version="1.0" encoding="UTF-8"?>
<svg xmlns="http://www.w3.org/2000/svg" xmlns:xlink="http://www.w3.org/1999/xlink" width="500px" height="500px" viewBox="0 0 500 500" version="1.1">
<defs>
<radialGradient id="radial0" gradientUnits="userSpaceOnUse" cx="32.5" cy="32" fx="32.5" fy="32" r="31.751" spreadMethod="reflect" gradientTransform="matrix(7.8125,0,0,7.8125,0,0)">
<stop offset="0" style="stop-color:rgb(68.627451%,93.333333%,100%);stop-opacity:1;"/>
<stop offset="0.193" style="stop-color:rgb(73.333333%,94.509804%,100%);stop-opacity:1;"/>
<stop offset="0.703" style="stop-color:rgb(84.313725%,97.254902%,100%);stop-opacity:1;"/>
<stop offset="1" style="stop-color:rgb(88.235294%,98.039216%,100%);stop-opacity:1;"/>
</radialGradient>
<linearGradient id="linear0" gradientUnits="userSpaceOnUse" x1="32.5" y1="49.906" x2="32.5" y2="-7.501" spreadMethod="reflect" gradientTransform="matrix(7.8125,0,0,7.8125,0,0)">
<stop offset="0" style="stop-color:rgb(8.235294%,36.078431%,87.058824%);stop-opacity:1;"/>
<stop offset="0.278" style="stop-color:rgb(12.156863%,49.803922%,89.803922%);stop-opacity:1;"/>
<stop offset="0.569" style="stop-color:rgb(15.294118%,61.176471%,92.156863%);stop-opacity:1;"/>
<stop offset="0.82" style="stop-color:rgb(17.254902%,68.627451%,93.72549%);stop-opacity:1;"/>
<stop offset="1" style="stop-color:rgb(18.039216%,70.980392%,94.117647%);stop-opacity:1;"/>
</linearGradient>
<linearGradient id="linear1" gradientUnits="userSpaceOnUse" x1="42" y1="33.922" x2="42" y2="51.153" spreadMethod="reflect" gradientTransform="matrix(7.8125,0,0,7.8125,0,0)">
<stop offset="0" style="stop-color:rgb(10.588235%,47.45098%,85.490196%);stop-opacity:1;"/>
<stop offset="0.434" style="stop-color:rgb(9.019608%,41.176471%,81.960784%);stop-opacity:1;"/>
<stop offset="1" style="stop-color:rgb(7.45098%,34.901961%,78.039216%);stop-opacity:1;"/>
</linearGradient>
<linearGradient id="linear2" gradientUnits="userSpaceOnUse" x1="16" y1="27" x2="16" y2="12" spreadMethod="reflect" gradientTransform="matrix(7.8125,0,0,7.8125,0,0)">
<stop offset="0.004" style="stop-color:rgb(18.039216%,57.647059%,91.372549%);stop-opacity:1;"/>
<stop offset="0.195" style="stop-color:rgb(18.431373%,59.607843%,91.764706%);stop-opacity:1;"/>
<stop offset="1" style="stop-color:rgb(20.392157%,65.882353%,92.941176%);stop-opacity:1;"/>
</linearGradient>
</defs>
<g id="surface273986">
<path style=" stroke:none;fill-rule:nonzero;fill:url(#radial0);" d="M 480.476562 140.6875 L 445.3125 140.6875 L 445.3125 109.4375 L 456.335938 109.4375 C 470.789062 109.4375 482.273438 96.234375 479.304688 81.3125 C 477.117188 70.140625 466.648438 62.5625 455.320312 62.5625 L 355.46875 62.5 C 348.984375 62.5 343.75 57.265625 343.75 50.78125 C 343.75 44.296875 348.984375 39.0625 355.46875 39.0625 L 401.640625 39.0625 C 410.546875 39.0625 418.828125 33.4375 421.171875 24.84375 C 424.6875 11.875 414.84375 0 402.34375 0 L 59.296875 0 C 50.390625 0 42.109375 5.625 39.765625 14.21875 C 36.25 27.1875 46.09375 39.0625 58.59375 39.0625 L 82.03125 39.0625 C 87.421875 39.0625 92.34375 41.25 95.859375 44.765625 C 99.375 48.28125 101.5625 53.203125 101.5625 58.59375 C 101.5625 69.375 92.8125 78.125 82.03125 78.125 L 31.25 78.125 C 18.359375 78.125 7.8125 88.671875 7.8125 101.5625 C 7.8125 114.453125 18.359375 125 31.25 125 L 62.5 125 L 62.5 293.0625 C 57.78125 296.632812 54.6875 302.234375 54.6875 308.59375 C 54.6875 314.953125 57.78125 320.5625 62.5 324.125 L 62.5 343.75 L 42.96875 343.75 C 23.632812 343.75 7.8125 359.570312 7.8125 378.90625 C 7.8125 398.242188 23.632812 414.0625 42.96875 414.0625 L 191.40625 414.0625 C 202.1875 414.0625 210.9375 422.8125 210.9375 433.59375 C 210.9375 444.375 202.1875 453.125 191.40625 453.125 L 148.4375 453.125 C 135.46875 453.125 125 463.59375 125 476.5625 C 125 489.53125 135.46875 500 148.4375 500 L 460.9375 500 C 473.90625 500 484.375 489.53125 484.375 476.5625 C 484.375 463.59375 473.90625 453.125 460.9375 453.125 L 417.96875 453.125 C 407.1875 453.125 398.4375 444.375 398.4375 433.59375 C 398.4375 422.8125 407.1875 414.0625 417.96875 414.0625 L 449.21875 414.0625 C 468.554688 414.0625 484.375 398.242188 484.375 378.90625 C 484.375 359.570312 468.554688 343.75 449.21875 343.75 L 445.3125 343.75 L 445.3125 179.726562 L 479.773438 179.75 C 488.679688 179.75 496.960938 174.125 499.304688 165.53125 C 502.742188 152.554688 492.898438 140.6875 480.476562 140.6875 Z M 480.476562 140.6875 "/>
<path style=" stroke:none;fill-rule:nonzero;fill:url(#linear0);" d="M 437.5 93.75 L 70.3125 93.75 C 57.367188 93.75 46.875 104.242188 46.875 117.1875 L 46.875 375 C 46.875 387.945312 57.367188 398.4375 70.3125 398.4375 L 437.5 398.4375 C 450.445312 398.4375 460.9375 387.945312 460.9375 375 L 460.9375 117.1875 C 460.9375 104.242188 450.445312 93.75 437.5 93.75 Z M 117.1875 367.1875 C 117.1875 371.5 113.6875 375 109.375 375 L 85.9375 375 C 81.625 375 78.125 371.5 78.125 367.1875 L 78.125 343.75 C 78.125 339.4375 81.625 335.9375 85.9375 335.9375 L 109.375 335.9375 C 113.6875 335.9375 117.1875 339.4375 117.1875 343.75 Z M 117.1875 148.4375 C 117.1875 152.75 113.6875 156.25 109.375 156.25 L 85.9375 156.25 C 81.625 156.25 78.125 152.75 78.125 148.4375 L 78.125 125 C 78.125 120.6875 81.625 117.1875 85.9375 117.1875 L 109.375 117.1875 C 113.6875 117.1875 117.1875 120.6875 117.1875 125 Z M 195.3125 367.1875 C 195.3125 371.5 191.8125 375 187.5 375 L 164.0625 375 C 159.75 375 156.25 371.5 156.25 367.1875 L 156.25 343.75 C 156.25 339.4375 159.75 335.9375 164.0625 335.9375 L 187.5 335.9375 C 191.8125 335.9375 195.3125 339.4375 195.3125 343.75 Z M 195.3125 148.4375 C 195.3125 152.75 191.8125 156.25 187.5 156.25 L 164.0625 156.25 C 159.75 156.25 156.25 152.75 156.25 148.4375 L 156.25 125 C 156.25 120.6875 159.75 117.1875 164.0625 117.1875 L 187.5 117.1875 C 191.8125 117.1875 195.3125 120.6875 195.3125 125 Z M 273.4375 367.1875 C 273.4375 371.5 269.9375 375 265.625 375 L 242.1875 375 C 237.875 375 234.375 371.5 234.375 367.1875 L 234.375 343.75 C 234.375 339.4375 237.875 335.9375 242.1875 335.9375 L 265.625 335.9375 C 269.9375 335.9375 273.4375 339.4375 273.4375 343.75 Z M 273.4375 148.4375 C 273.4375 152.75 269.9375 156.25 265.625 156.25 L 242.1875 156.25 C 237.875 156.25 234.375 152.75 234.375 148.4375 L 234.375 125 C 234.375 120.6875 237.875 117.1875 242.1875 117.1875 L 265.625 117.1875 C 269.9375 117.1875 273.4375 120.6875 273.4375 125 Z M 351.5625 367.1875 C 351.5625 371.5 348.0625 375 343.75 375 L 320.3125 375 C 316 375 312.5 371.5 312.5 367.1875 L 312.5 343.75 C 312.5 339.4375 316 335.9375 320.3125 335.9375 L 343.75 335.9375 C 348.0625 335.9375 351.5625 339.4375 351.5625 343.75 Z M 351.5625 148.4375 C 351.5625 152.75 348.0625 156.25 343.75 156.25 L 320.3125 156.25 C 316 156.25 312.5 152.75 312.5 148.4375 L 312.5 125 C 312.5 120.6875 316 117.1875 320.3125 117.1875 L 343.75 117.1875 C 348.0625 117.1875 351.5625 120.6875 351.5625 125 Z M 429.6875 367.1875 C 429.6875 371.5 426.1875 375 421.875 375 L 398.4375 375 C 394.125 375 390.625 371.5 390.625 367.1875 L 390.625 343.75 C 390.625 339.4375 394.125 335.9375 398.4375 335.9375 L 421.875 335.9375 C 426.1875 335.9375 429.6875 339.4375 429.6875 343.75 Z M 429.6875 148.4375 C 429.6875 152.75 426.1875 156.25 421.875 156.25 L 398.4375 156.25 C 394.125 156.25 390.625 152.75 390.625 148.4375 L 390.625 125 C 390.625 120.6875 394.125 117.1875 398.4375 117.1875 L 421.875 117.1875 C 426.1875 117.1875 429.6875 120.6875 429.6875 125 Z M 429.6875 148.4375 "/>
<path style=" stroke:none;fill-rule:nonzero;fill:url(#linear1);" d="M 195.3125 289.0625 C 195.3125 276.117188 205.804688 265.625 218.75 265.625 C 231.695312 265.625 242.1875 276.117188 242.1875 289.0625 C 242.1875 302.007812 231.695312 312.5 218.75 312.5 C 205.804688 312.5 195.3125 302.007812 195.3125 289.0625 Z M 460.9375 265.625 L 460.9375 375 C 460.9375 387.945312 450.445312 398.4375 437.5 398.4375 L 234.375 398.4375 C 221.429688 398.4375 210.9375 387.945312 210.9375 375 C 210.9375 362.054688 221.429688 351.5625 234.375 351.5625 L 234.375 367.1875 C 234.375 371.5 237.875 375 242.1875 375 L 265.625 375 C 269.9375 375 273.4375 371.5 273.4375 367.1875 L 273.4375 351.5625 L 285.15625 351.5625 C 295.945312 351.5625 304.6875 342.820312 304.6875 332.03125 C 304.6875 321.242188 295.945312 312.5 285.15625 312.5 L 281.25 312.5 C 268.304688 312.5 257.8125 302.007812 257.8125 289.0625 C 257.8125 276.117188 268.304688 265.625 281.25 265.625 Z M 390.625 367.1875 C 390.625 371.5 394.125 375 398.4375 375 L 421.875 375 C 426.1875 375 429.6875 371.5 429.6875 367.1875 L 429.6875 343.75 C 429.6875 339.4375 426.1875 335.9375 421.875 335.9375 L 398.4375 335.9375 C 394.125 335.9375 390.625 339.4375 390.625 343.75 Z M 343.75 335.9375 L 320.3125 335.9375 C 316 335.9375 312.5 339.4375 312.5 343.75 L 312.5 367.1875 C 312.5 371.5 316 375 320.3125 375 L 343.75 375 C 348.0625 375 351.5625 371.5 351.5625 367.1875 L 351.5625 343.75 C 351.5625 339.4375 348.0625 335.9375 343.75 335.9375 Z M 343.75 335.9375 "/>
<path style=" stroke:none;fill-rule:nonzero;fill:url(#linear2);" d="M 171.875 191.40625 C 171.875 180.617188 163.132812 171.875 152.34375 171.875 C 141.554688 171.875 132.8125 163.132812 132.8125 152.34375 C 132.8125 141.554688 141.554688 132.8125 152.34375 132.8125 L 156.25 132.8125 L 156.25 125 C 156.25 120.6875 159.75 117.1875 164.0625 117.1875 L 187.5 117.1875 C 191.8125 117.1875 195.3125 120.6875 195.3125 125 L 195.3125 128.820312 C 200.03125 125.257812 203.125 119.65625 203.125 113.28125 C 203.125 102.492188 194.382812 93.75 183.59375 93.75 L 70.3125 93.75 C 57.367188 93.75 46.875 104.242188 46.875 117.1875 L 46.875 210.9375 L 152.34375 210.9375 C 163.132812 210.9375 171.875 202.195312 171.875 191.40625 Z M 117.1875 148.4375 C 117.1875 152.75 113.6875 156.25 109.375 156.25 L 85.9375 156.25 C 81.625 156.25 78.125 152.75 78.125 148.4375 L 78.125 125 C 78.125 120.6875 81.625 117.1875 85.9375 117.1875 L 109.375 117.1875 C 113.6875 117.1875 117.1875 120.6875 117.1875 125 Z M 117.1875 148.4375 "/>
</g>
</svg>
