<?xml version="1.0" encoding="UTF-8"?>
<svg xmlns="http://www.w3.org/2000/svg" xmlns:xlink="http://www.w3.org/1999/xlink" width="64px" height="64px" viewBox="0 0 64 64" version="1.1">
<defs>
<radialGradient id="radial0" gradientUnits="userSpaceOnUse" cx="32.5" cy="32" fx="32.5" fy="32" r="31.751" spreadMethod="reflect">
<stop offset="0" style="stop-color:rgb(68.627451%,93.333333%,100%);stop-opacity:1;"/>
<stop offset="0.193" style="stop-color:rgb(73.333333%,94.509804%,100%);stop-opacity:1;"/>
<stop offset="0.703" style="stop-color:rgb(84.313725%,97.254902%,100%);stop-opacity:1;"/>
<stop offset="1" style="stop-color:rgb(88.235294%,98.039216%,100%);stop-opacity:1;"/>
</radialGradient>
<linearGradient id="linear0" gradientUnits="userSpaceOnUse" x1="32.5" y1="49.906" x2="32.5" y2="-7.501" spreadMethod="reflect">
<stop offset="0" style="stop-color:rgb(8.235294%,36.078431%,87.058824%);stop-opacity:1;"/>
<stop offset="0.278" style="stop-color:rgb(12.156863%,49.803922%,89.803922%);stop-opacity:1;"/>
<stop offset="0.569" style="stop-color:rgb(15.294118%,61.176471%,92.156863%);stop-opacity:1;"/>
<stop offset="0.82" style="stop-color:rgb(17.254902%,68.627451%,93.72549%);stop-opacity:1;"/>
<stop offset="1" style="stop-color:rgb(18.039216%,70.980392%,94.117647%);stop-opacity:1;"/>
</linearGradient>
<linearGradient id="linear1" gradientUnits="userSpaceOnUse" x1="42" y1="33.922" x2="42" y2="51.153" spreadMethod="reflect">
<stop offset="0" style="stop-color:rgb(10.588235%,47.45098%,85.490196%);stop-opacity:1;"/>
<stop offset="0.434" style="stop-color:rgb(9.019608%,41.176471%,81.960784%);stop-opacity:1;"/>
<stop offset="1" style="stop-color:rgb(7.45098%,34.901961%,78.039216%);stop-opacity:1;"/>
</linearGradient>
<linearGradient id="linear2" gradientUnits="userSpaceOnUse" x1="16" y1="27" x2="16" y2="12" spreadMethod="reflect">
<stop offset="0.004" style="stop-color:rgb(18.039216%,57.647059%,91.372549%);stop-opacity:1;"/>
<stop offset="0.195" style="stop-color:rgb(18.431373%,59.607843%,91.764706%);stop-opacity:1;"/>
<stop offset="1" style="stop-color:rgb(20.392157%,65.882353%,92.941176%);stop-opacity:1;"/>
</linearGradient>
</defs>
<g id="surface44572">
<path style=" stroke:none;fill-rule:nonzero;fill:url(#radial0);" d="M 61.5 18.007812 L 57 18.007812 L 57 14.007812 L 58.410156 14.007812 C 60.261719 14.007812 61.730469 12.316406 61.351562 10.40625 C 61.070312 8.976562 59.730469 8.007812 58.28125 8.007812 L 45.5 8 C 44.671875 8 44 7.328125 44 6.5 C 44 5.671875 44.671875 5 45.5 5 L 51.410156 5 C 52.550781 5 53.609375 4.28125 53.910156 3.179688 C 54.359375 1.519531 53.101562 0 51.5 0 L 7.589844 0 C 6.449219 0 5.390625 0.71875 5.089844 1.820312 C 4.640625 3.480469 5.898438 5 7.5 5 L 10.5 5 C 11.191406 5 11.820312 5.28125 12.269531 5.730469 C 12.71875 6.179688 13 6.808594 13 7.5 C 13 8.878906 11.878906 10 10.5 10 L 4 10 C 2.351562 10 1 11.351562 1 13 C 1 14.648438 2.351562 16 4 16 L 8 16 L 8 37.511719 C 7.394531 37.96875 7 38.6875 7 39.5 C 7 40.3125 7.394531 41.03125 8 41.488281 L 8 44 L 5.5 44 C 3.023438 44 1 46.023438 1 48.5 C 1 50.976562 3.023438 53 5.5 53 L 24.5 53 C 25.878906 53 27 54.121094 27 55.5 C 27 56.878906 25.878906 58 24.5 58 L 19 58 C 17.339844 58 16 59.339844 16 61 C 16 62.660156 17.339844 64 19 64 L 59 64 C 60.660156 64 62 62.660156 62 61 C 62 59.339844 60.660156 58 59 58 L 53.5 58 C 52.121094 58 51 56.878906 51 55.5 C 51 54.121094 52.121094 53 53.5 53 L 57.5 53 C 59.976562 53 62 50.976562 62 48.5 C 62 46.023438 59.976562 44 57.5 44 L 57 44 L 57 23.003906 L 61.410156 23.007812 C 62.550781 23.007812 63.609375 22.289062 63.910156 21.1875 C 64.351562 19.527344 63.089844 18.007812 61.5 18.007812 Z M 61.5 18.007812 "/>
<path style=" stroke:none;fill-rule:nonzero;fill:url(#linear0);" d="M 56 12 L 9 12 C 7.34375 12 6 13.34375 6 15 L 6 48 C 6 49.65625 7.34375 51 9 51 L 56 51 C 57.65625 51 59 49.65625 59 48 L 59 15 C 59 13.34375 57.65625 12 56 12 Z M 15 47 C 15 47.550781 14.550781 48 14 48 L 11 48 C 10.449219 48 10 47.550781 10 47 L 10 44 C 10 43.449219 10.449219 43 11 43 L 14 43 C 14.550781 43 15 43.449219 15 44 Z M 15 19 C 15 19.550781 14.550781 20 14 20 L 11 20 C 10.449219 20 10 19.550781 10 19 L 10 16 C 10 15.449219 10.449219 15 11 15 L 14 15 C 14.550781 15 15 15.449219 15 16 Z M 25 47 C 25 47.550781 24.550781 48 24 48 L 21 48 C 20.449219 48 20 47.550781 20 47 L 20 44 C 20 43.449219 20.449219 43 21 43 L 24 43 C 24.550781 43 25 43.449219 25 44 Z M 25 19 C 25 19.550781 24.550781 20 24 20 L 21 20 C 20.449219 20 20 19.550781 20 19 L 20 16 C 20 15.449219 20.449219 15 21 15 L 24 15 C 24.550781 15 25 15.449219 25 16 Z M 35 47 C 35 47.550781 34.550781 48 34 48 L 31 48 C 30.449219 48 30 47.550781 30 47 L 30 44 C 30 43.449219 30.449219 43 31 43 L 34 43 C 34.550781 43 35 43.449219 35 44 Z M 35 19 C 35 19.550781 34.550781 20 34 20 L 31 20 C 30.449219 20 30 19.550781 30 19 L 30 16 C 30 15.449219 30.449219 15 31 15 L 34 15 C 34.550781 15 35 15.449219 35 16 Z M 45 47 C 45 47.550781 44.550781 48 44 48 L 41 48 C 40.449219 48 40 47.550781 40 47 L 40 44 C 40 43.449219 40.449219 43 41 43 L 44 43 C 44.550781 43 45 43.449219 45 44 Z M 45 19 C 45 19.550781 44.550781 20 44 20 L 41 20 C 40.449219 20 40 19.550781 40 19 L 40 16 C 40 15.449219 40.449219 15 41 15 L 44 15 C 44.550781 15 45 15.449219 45 16 Z M 55 47 C 55 47.550781 54.550781 48 54 48 L 51 48 C 50.449219 48 50 47.550781 50 47 L 50 44 C 50 43.449219 50.449219 43 51 43 L 54 43 C 54.550781 43 55 43.449219 55 44 Z M 55 19 C 55 19.550781 54.550781 20 54 20 L 51 20 C 50.449219 20 50 19.550781 50 19 L 50 16 C 50 15.449219 50.449219 15 51 15 L 54 15 C 54.550781 15 55 15.449219 55 16 Z M 55 19 "/>
<path style=" stroke:none;fill-rule:nonzero;fill:url(#linear1);" d="M 25 37 C 25 35.34375 26.34375 34 28 34 C 29.65625 34 31 35.34375 31 37 C 31 38.65625 29.65625 40 28 40 C 26.34375 40 25 38.65625 25 37 Z M 59 34 L 59 48 C 59 49.65625 57.65625 51 56 51 L 30 51 C 28.34375 51 27 49.65625 27 48 C 27 46.34375 28.34375 45 30 45 L 30 47 C 30 47.550781 30.449219 48 31 48 L 34 48 C 34.550781 48 35 47.550781 35 47 L 35 45 L 36.5 45 C 37.882812 45 39 43.882812 39 42.5 C 39 41.117188 37.882812 40 36.5 40 L 36 40 C 34.34375 40 33 38.65625 33 37 C 33 35.34375 34.34375 34 36 34 Z M 50 47 C 50 47.550781 50.449219 48 51 48 L 54 48 C 54.550781 48 55 47.550781 55 47 L 55 44 C 55 43.449219 54.550781 43 54 43 L 51 43 C 50.449219 43 50 43.449219 50 44 Z M 44 43 L 41 43 C 40.449219 43 40 43.449219 40 44 L 40 47 C 40 47.550781 40.449219 48 41 48 L 44 48 C 44.550781 48 45 47.550781 45 47 L 45 44 C 45 43.449219 44.550781 43 44 43 Z M 44 43 "/>
<path style=" stroke:none;fill-rule:nonzero;fill:url(#linear2);" d="M 22 24.5 C 22 23.117188 20.882812 22 19.5 22 C 18.117188 22 17 20.882812 17 19.5 C 17 18.117188 18.117188 17 19.5 17 L 20 17 L 20 16 C 20 15.449219 20.449219 15 21 15 L 24 15 C 24.550781 15 25 15.449219 25 16 L 25 16.488281 C 25.605469 16.03125 26 15.316406 26 14.5 C 26 13.117188 24.882812 12 23.5 12 L 9 12 C 7.34375 12 6 13.34375 6 15 L 6 27 L 19.5 27 C 20.882812 27 22 25.882812 22 24.5 Z M 15 19 C 15 19.550781 14.550781 20 14 20 L 11 20 C 10.449219 20 10 19.550781 10 19 L 10 16 C 10 15.449219 10.449219 15 11 15 L 14 15 C 14.550781 15 15 15.449219 15 16 Z M 15 19 "/>
</g>
</svg>
